<?xml version="1.0" encoding="UTF-8" standalone="no"?>
<svg
   xmlns:dc="http://purl.org/dc/elements/1.1/"
   xmlns:cc="http://creativecommons.org/ns#"
   xmlns:rdf="http://www.w3.org/1999/02/22-rdf-syntax-ns#"
   xmlns:svg="http://www.w3.org/2000/svg"
   xmlns="http://www.w3.org/2000/svg"
   xmlns:sodipodi="http://sodipodi.sourceforge.net/DTD/sodipodi-0.dtd"
   xmlns:inkscape="http://www.inkscape.org/namespaces/inkscape"
   viewBox="0 0 1280 286.96475"
   height="286.96475"
   width="1280"
   xml:space="preserve"
   id="svg2"
   version="1.1"
   sodipodi:docname="tmp.svg"
   inkscape:version="0.92.5 (2060ec1f9f, 2020-04-08)"><sodipodi:namedview
     pagecolor="#ffffff"
     bordercolor="#666666"
     borderopacity="1"
     objecttolerance="10"
     gridtolerance="10"
     guidetolerance="10"
     inkscape:pageopacity="0"
     inkscape:pageshadow="2"
     inkscape:window-width="1920"
     inkscape:window-height="1001"
     id="namedview45"
     showgrid="false"
     inkscape:zoom="0.92709556"
     inkscape:cx="560.0288"
     inkscape:cy="-74.963207"
     inkscape:window-x="-9"
     inkscape:window-y="370"
     inkscape:window-maximized="1"
     inkscape:current-layer="g10" /><metadata
     id="metadata8"><rdf:RDF><cc:Work
         rdf:about=""><dc:format>image/svg+xml</dc:format><dc:type
           rdf:resource="http://purl.org/dc/dcmitype/StillImage" /></cc:Work></rdf:RDF></metadata><defs
     id="defs6"><clipPath
       id="clipPath18"
       clipPathUnits="userSpaceOnUse"><path
         style="clip-rule:evenodd"
         id="path16"
         d="M 0,1.2207e-4 H 960 V 540.00012 H 0 Z"
         inkscape:connector-curvature="0" /></clipPath><clipPath
       id="clipPath28"
       clipPathUnits="userSpaceOnUse"><path
         style="clip-rule:evenodd"
         id="path26"
         d="M 0,1.2207e-4 H 960 V 540.00012 H 0 Z"
         inkscape:connector-curvature="0" /></clipPath><clipPath
       id="clipPath38"
       clipPathUnits="userSpaceOnUse"><path
         style="clip-rule:evenodd"
         id="path36"
         d="M 1.4305e-5,0 H 960.00001 V 540 H 1.4305e-5 Z"
         inkscape:connector-curvature="0" /></clipPath><clipPath
       id="clipPath50"
       clipPathUnits="userSpaceOnUse"><path
         style="clip-rule:evenodd"
         id="path48"
         d="M 1.4305e-5,0 H 960.00001 V 540 H 1.4305e-5 Z"
         inkscape:connector-curvature="0" /></clipPath><linearGradient
       id="linearGradient62"
       spreadMethod="pad"
       gradientUnits="userSpaceOnUse"
       y2="525.10999"
       x2="387.79999"
       y1="325.91"
       x1="387.79999"><stop
         id="stop58"
         offset="0"
         style="stop-opacity:1;stop-color:#68b0ab" /><stop
         id="stop60"
         offset="1"
         style="stop-opacity:1;stop-color:#ffff00" /></linearGradient><clipPath
       id="clipPath72"
       clipPathUnits="userSpaceOnUse"><path
         style="clip-rule:evenodd"
         id="path70"
         d="M 1.4305e-5,0 H 960.00001 V 540 H 1.4305e-5 Z"
         inkscape:connector-curvature="0" /></clipPath><linearGradient
       id="linearGradient84"
       spreadMethod="pad"
       gradientUnits="userSpaceOnUse"
       y2="618.81"
       x2="850.84003"
       y1="332.01001"
       x1="850.84003"><stop
         id="stop80"
         offset="0"
         style="stop-opacity:1;stop-color:#68b0ab" /><stop
         id="stop82"
         offset="1"
         style="stop-opacity:1;stop-color:#ffff00" /></linearGradient></defs><g
     transform="matrix(1.3333333,0,0,-1.3502825,0,729.15263)"
     id="g10"><g
       id="g12"><g
         clip-path="url(#clipPath18)"
         id="g14"><path
           id="path20"
           style="fill:#ffffff;fill-opacity:1;fill-rule:evenodd;stroke:none"
           d="M 2.0105382,327.47806 958.52084,328.16335 960,540.00006 H 0 Z"
           inkscape:connector-curvature="0"
           sodipodi:nodetypes="ccccc" /></g></g><g
       id="g22"><g
         clip-path="url(#clipPath28)"
         id="g24"><path
           id="path30"
           style="fill:#ffffff;fill-opacity:1;fill-rule:evenodd;stroke:none"
           d="m 0,362.88 h 960 l -0.80898,143.56941 H 1.6179562 Z"
           inkscape:connector-curvature="0"
           sodipodi:nodetypes="ccccc" /></g></g><g
       id="g32"><g
         clip-path="url(#clipPath38)"
         id="g34"><g
   aria-label="A"
   transform="matrix(1,0,0,-1,35.424,363.43)"
   style="font-variant:normal;font-weight:bold;font-size:165.97999573px;font-family:SegoeUI;-inkscape-font-specification:SegoeUI-Bold;writing-mode:lr-tb;fill:#44546a;fill-opacity:1;fill-rule:nonzero;stroke:none"
   id="text42"><path
     d="M 115.48901,0 H 86.961199 L 78.694617,-25.853329 H 37.361708 L 29.176171,0 H 0.8104492 L 43.115897,-116.21841 H 74.156102 Z M 72.697293,-45.95247 60.216375,-85.016121 q -1.377763,-4.376426 -1.945078,-10.454795 h -0.648359 q -0.405225,5.10583 -2.026123,10.130615 L 42.953807,-45.95247 Z"
     style=""
     id="path47" /></g>
</g></g><g
       id="g44"><g
         clip-path="url(#clipPath50)"
         id="g46"><g
   aria-label="RCH"
   transform="matrix(1,0,0,-1,149.06,363.43)"
   style="font-variant:normal;font-weight:bold;font-size:132.86000061px;font-family:SegoeUI;-inkscape-font-specification:SegoeUI-Bold;writing-mode:lr-tb;fill:#44546a;fill-opacity:1;fill-rule:nonzero;stroke:none"
   id="text54"><path
     d="m 88.681455,0 h -24.0679 l -14.46669,-23.938154 q -1.621826,-2.724668 -3.113906,-4.865479 -1.49208,-2.140811 -3.049033,-3.632891 -1.49208,-1.556953 -3.178779,-2.335429 -1.621827,-0.84335 -3.568018,-0.84335 H 31.593174 V 0 H 10.63918 v -93.02795 h 33.215 q 33.863731,0 33.863731,25.300489 0,4.865478 -1.492081,9.017353 -1.49208,4.087002 -4.216748,7.395528 -2.724668,3.308525 -6.61705,5.708828 -3.82751,2.400303 -8.563243,3.762637 v 0.259492 q 2.075938,0.64873 4.022129,2.14081 1.946192,1.427207 3.762637,3.373399 1.816445,1.946191 3.438271,4.216748 1.6867,2.205683 3.049034,4.346494 z M 31.593174,-77.328672 v 25.884346 h 9.082227 q 6.746796,0 10.833798,-3.892383 4.151875,-3.957256 4.151875,-9.79583 0,-12.196133 -14.596435,-12.196133 z"
     style=""
     id="path50" /><path
     d="m 160.36617,-3.3085254 q -10.18507,4.9303516 -26.59795,4.9303516 -21.4081,0 -33.66911,-12.5853712 -12.261006,-12.585371 -12.261006,-33.539365 0,-22.316329 13.753086,-36.199161 13.81796,-13.882832 35.80992,-13.882832 13.62334,0 22.96506,3.438272 v 20.175517 q -9.34172,-5.579082 -21.27836,-5.579082 -13.10435,0 -21.14861,8.238877 -8.04426,8.238877 -8.04426,22.316329 0,13.493593 7.59015,21.537851 7.59014,7.979385 20.43501,7.979385 12.261,0 22.44607,-5.96832 z"
     style=""
     id="path52" /><path
     d="M 254.69729,0 H 233.67842 V -37.88586 H 195.14383 V 0 h -20.95399 v -93.02795 h 20.95399 v 37.107383 h 38.53459 V -93.02795 h 21.01887 z"
     style=""
     id="path54" /></g>
</g></g><g
       id="g56"><path
         id="path64"
         style="fill:url(#linearGradient62);fill-opacity:1;fill-rule:evenodd;stroke:none"
         d="m 422.61,363.47 h 20.951 v 93.014 H 422.61 Z"
         inkscape:connector-curvature="0" /></g><g
       id="g66"><g
         clip-path="url(#clipPath72)"
         id="g68"><g
   aria-label="MED"
   transform="matrix(1,0,0,-1,451.75,363.43)"
   style="font-variant:normal;font-weight:bold;font-size:132.86000061px;font-family:SegoeUI;-inkscape-font-specification:SegoeUI-Bold;writing-mode:lr-tb;fill:#44546a;fill-opacity:1;fill-rule:nonzero;stroke:none"
   id="text76"><path
     d="M 116.64174,0 H 95.947237 v -55.661074 q 0,-9.017354 0.778476,-19.916026 h -0.518984 q -1.621826,8.563242 -2.919287,12.325879 L 71.490098,0 H 54.363614 L 32.177031,-62.602491 Q 31.268809,-65.132539 29.257744,-75.5771 h -0.583857 q 0.843349,13.753086 0.843349,24.132774 V 0 H 10.63918 v -93.02795 h 30.684951 l 19.007803,55.14209 q 2.270557,6.617051 3.308525,13.298975 h 0.389239 q 1.751572,-7.719892 3.697763,-13.428721 L 86.735264,-93.02795 h 29.906476 z"
     style=""
     id="path57" /><path
     d="m 191.18554,0 h -55.79082 v -93.02795 h 53.65001 v 17.061612 h -32.69602 v 20.694502 h 30.42546 v 16.996738 h -30.42546 v 21.27836 h 34.83683 z"
     style=""
     id="path59" /><path
     d="m 203.68476,0 v -93.02795 h 32.95551 q 49.563,0 49.563,45.34626 0,21.732471 -13.55846,34.707081 Q 259.15121,0 236.64027,0 Z m 20.95399,-75.966338 v 58.9696 h 10.37969 q 13.62334,0 21.34323,-8.174004 7.78477,-8.174004 7.78477,-22.251455 0,-13.298975 -7.71989,-20.889122 -7.65502,-7.655019 -21.53786,-7.655019 z"
     style=""
     id="path61" /></g>
</g></g><g
       id="g78"><path
         id="path86"
         style="fill:url(#linearGradient84);fill-opacity:1;fill-rule:evenodd;stroke:none"
         d="m 880.38,490.14 c -5.29,0 -9.72,-1.97 -13.3,-5.9 -3.58,-3.93 -5.78,-9.18 -6.6,-15.76 -0.81,-6.57 -1.22,-17.06 -1.22,-31.45 v -42.95 c 29.49,1.63 44.23,20.03 44.23,55.2 0,12.92 -2.08,22.96 -6.24,30.12 -4.16,7.16 -9.79,10.74 -16.87,10.74 z m -59.99,10.27 6.89,-8.17 c -17.05,-13.15 -25.57,-30.74 -25.57,-52.76 0,-27.86 12.69,-42.84 38.05,-44.94 v 50.66 c 0,16.88 3.7,30.23 11.09,40.03 7.4,9.81 17.86,14.71 31.4,14.71 12.45,0 22.74,-4.51 30.87,-13.54 8.13,-9.03 12.2,-21.55 12.2,-37.58 0,-20 -5.6,-35.47 -16.81,-46.4 -11.2,-10.93 -27.62,-16.75 -49.25,-17.45 v -49.02 h -19.5 v 49.02 c -40.22,1.71 -60.34,18.99 -60.34,51.83 0,24.43 13.66,45.63 40.97,63.61 z"
         inkscape:connector-curvature="0" /></g><path
       id="path88"
       style="fill:#44546a;fill-opacity:1;fill-rule:evenodd;stroke:none"
       d="m 0,352.56 h 444 v 11.28 H 0 Z"
       inkscape:connector-curvature="0" /></g></svg>